<svg width="130" height="32" viewBox="0 0 130 32" fill="none" xmlns="http://www.w3.org/2000/svg">
<path d="M49.4308 6.9942C44.3914 6.9942 40.252 11.265 40.252 16.4642C40.252 21.6635 44.3914 25.9343 49.4308 25.9343C52.3704 25.9343 54.95 24.5107 56.6298 22.2824L54.6501 20.2399C53.5102 21.911 51.5905 23.0252 49.4308 23.0252C46.3712 23.0252 43.8515 20.7969 43.1916 17.8878H51.7705H55.67H58.4896C58.5496 17.3927 58.6096 16.9594 58.6096 16.4642C58.6096 11.265 54.4701 6.9942 49.4308 6.9942ZM43.1916 15.0406C43.8515 12.0696 46.3712 9.90329 49.4308 9.90329C52.4904 9.90329 55.01 12.1315 55.67 15.0406H43.1916Z" fill="#008CFF"/>
<path d="M76.7269 6.99414H73.1874V4.20883C73.1874 3.52798 73.7273 2.90903 74.4472 2.90903H76.367V0.0618286H74.4472C72.2275 0.0618286 70.4278 1.9187 70.4278 4.20883V6.99414H63.9486V4.20883C63.9486 3.52798 64.4885 2.90903 65.2084 2.90903H67.1882V0.0618286H65.2084C62.9887 0.0618286 61.189 1.9187 61.189 4.20883V6.99414H57.6494V9.84133H61.189V25.9342H63.9486V9.84133H70.4278V25.9342H73.1874V9.84133H76.7269V6.99414Z" fill="#008CFF"/>
<path d="M84.8263 23.0871C81.7667 23.0871 79.247 20.8588 78.5871 17.9497H87.166H91.0655H93.8851C93.9451 17.4546 94.0051 17.0213 94.0051 16.5261C94.0051 11.3269 89.8656 7.05609 84.8263 7.05609C79.7869 7.05609 75.6475 11.3269 75.6475 16.5261C75.6475 21.7253 79.7869 25.9961 84.8263 25.9961C87.7659 25.9961 90.3456 24.5725 92.0253 22.3443L90.0456 20.3018C88.9057 21.9729 86.986 23.0871 84.8263 23.0871ZM84.8263 9.90329C87.8859 9.90329 90.4056 12.1315 91.0655 15.0406H78.5871C79.247 12.0696 81.7667 9.90329 84.8263 9.90329Z" fill="#008CFF"/>
<path d="M105.703 9.90329C107.863 9.90329 109.783 11.0174 110.923 12.6886L112.902 10.646C111.223 8.4178 108.583 6.9942 105.703 6.9942C100.664 6.9942 96.5244 11.265 96.5244 16.4642C96.5244 21.6635 100.664 25.9343 105.703 25.9343C108.643 25.9343 111.223 24.5107 112.902 22.2824L110.923 20.2399C109.783 21.911 107.863 23.0252 105.703 23.0252C102.164 23.0252 99.2841 20.0542 99.2841 16.4023C99.2841 12.7505 102.164 9.90329 105.703 9.90329Z" fill="#008CFF"/>
<path d="M123.281 25.9962V23.149H121.302C120.642 23.149 120.042 22.5919 120.042 21.8491V9.9033H123.281V7.0561H120.102V0H117.342V6.9942H114.103V9.8414H117.342V21.7873C117.342 24.0774 119.142 25.9343 121.362 25.9343H123.281V25.9962Z" fill="#008CFF"/>
<path d="M130 6.9942H127.24V25.9343H130V6.9942Z" fill="#008CFF"/>
<path d="M128.62 2.90903C129.4 2.90903 130 2.29007 130 1.48543C130 0.680785 129.4 0.0618286 128.62 0.0618286C127.84 0.0618286 127.24 0.680785 127.24 1.48543C127.24 2.22817 127.84 2.90903 128.62 2.90903Z" fill="#008CFF"/>
<path d="M26.2736 5.01353L16.7349 10.646V0.742737H13.9152V10.646L4.43646 5.01353L3.05664 7.48936L15.355 14.793L27.6535 7.48936L26.2736 5.01353Z" fill="#008CFF"/>
<path d="M0.237305 12.441L9.77607 18.1354L1.43715 23.087L2.81697 25.6247L11.1559 20.6112V32H13.9155V17.3307L1.61713 9.96515L0.237305 12.441Z" fill="#008CFF"/>
<path d="M30.4126 12.5029L29.0328 9.96515L16.7344 17.3307V32H19.554V20.6112L27.8929 25.6247L29.2727 23.087L20.9338 18.1354L30.4126 12.5029Z" fill="#008CFF"/>
<path d="M20.5583 1.57382L19.2412 4.49146L21.7428 5.69354L23.0599 2.77591L20.5583 1.57382Z" fill="#008CFF"/>
<path d="M10.1266 1.60358L7.625 2.80566L8.94209 5.7233L11.4437 4.52121L10.1266 1.60358Z" fill="#008CFF"/>
<path d="M23.4679 25.9573L21.208 27.5916L22.9987 30.2273L25.2585 28.593L23.4679 25.9573Z" fill="#008CFF"/>
<path d="M7.22326 25.8885L5.43262 28.5239L7.69221 30.1582L9.48286 27.5228L7.22326 25.8885Z" fill="#008CFF"/>
<path d="M3.10774 16.145L0 16.4262L0.241098 19.2626L3.34884 18.9814L3.10774 16.145Z" fill="#008CFF"/>
<path d="M27.554 16.1874L27.3125 19.0237L30.4202 19.3055L30.6618 16.4691L27.554 16.1874Z" fill="#008CFF"/>
</svg>
